<mxfile host="Electron" modified="2023-09-11T10:04:42.654Z" agent="Mozilla/5.0 (Windows NT 10.0; Win64; x64) AppleWebKit/537.36 (KHTML, like Gecko) draw.io/21.6.5 Chrome/114.0.5735.243 Electron/25.3.1 Safari/537.36" etag="yg589M_6vcWAx0511n9z" version="21.6.5" type="device">
  <diagram name="Page-1" id="y8iQO0ystdH8mPuhhtp-">
    <mxGraphModel dx="1418" dy="828" grid="1" gridSize="10" guides="1" tooltips="1" connect="1" arrows="1" fold="1" page="1" pageScale="1" pageWidth="827" pageHeight="1169" math="0" shadow="0">
      <root>
        <mxCell id="0" />
        <mxCell id="1" parent="0" />
        <mxCell id="KuroobSc8qhje58qCRhM-1" value="Bouteille" style="swimlane;fontStyle=1;align=center;verticalAlign=top;childLayout=stackLayout;horizontal=1;startSize=26;horizontalStack=0;resizeParent=1;resizeParentMax=0;resizeLast=0;collapsible=1;marginBottom=0;whiteSpace=wrap;html=1;" parent="1" vertex="1">
          <mxGeometry x="119" y="41" width="260" height="250" as="geometry" />
        </mxCell>
        <mxCell id="KuroobSc8qhje58qCRhM-2" value="- capaciteEnL : double&amp;lt;const&amp;gt;&lt;br&gt;- contenanceEnL : double&lt;br&gt;- estOuverte : boolean&lt;br&gt;- marque: string" style="text;strokeColor=none;fillColor=none;align=left;verticalAlign=top;spacingLeft=4;spacingRight=4;overflow=hidden;rotatable=0;points=[[0,0.5],[1,0.5]];portConstraint=eastwest;whiteSpace=wrap;html=1;" parent="KuroobSc8qhje58qCRhM-1" vertex="1">
          <mxGeometry y="26" width="260" height="64" as="geometry" />
        </mxCell>
        <mxCell id="KuroobSc8qhje58qCRhM-3" value="" style="line;strokeWidth=1;fillColor=none;align=left;verticalAlign=middle;spacingTop=-1;spacingLeft=3;spacingRight=3;rotatable=0;labelPosition=right;points=[];portConstraint=eastwest;strokeColor=inherit;" parent="KuroobSc8qhje58qCRhM-1" vertex="1">
          <mxGeometry y="90" width="260" height="8" as="geometry" />
        </mxCell>
        <mxCell id="KuroobSc8qhje58qCRhM-4" value="+ ouvrir() : boolean&lt;br&gt;+ fermer() : boolean&lt;br&gt;+ remplirTout() : boolean&lt;br&gt;+ remplir(double quantiteEnL) boolean&lt;br&gt;+ viderTout() : boolean&lt;br&gt;+ vider(double quantiteEnL) : boolean&lt;br&gt;+ Bouteille()&lt;br&gt;+ Bouteille(double_contenanceEnL, boolean&lt;br&gt;_estOuverte, String_nom)" style="text;strokeColor=none;fillColor=none;align=left;verticalAlign=top;spacingLeft=4;spacingRight=4;overflow=hidden;rotatable=0;points=[[0,0.5],[1,0.5]];portConstraint=eastwest;whiteSpace=wrap;html=1;" parent="KuroobSc8qhje58qCRhM-1" vertex="1">
          <mxGeometry y="98" width="260" height="152" as="geometry" />
        </mxCell>
        <mxCell id="WRiCCvtNNH3mj4T9hAHX-44" value="&lt;u&gt;&lt;b&gt;bouteilleDeau:Bouteille&lt;/b&gt;&lt;/u&gt;" style="html=1;whiteSpace=wrap;" parent="1" vertex="1">
          <mxGeometry x="430" y="80" width="190" height="20" as="geometry" />
        </mxCell>
        <mxCell id="WRiCCvtNNH3mj4T9hAHX-45" value="&lt;div style=&quot;box-sizing:border-box;width:100%;background:#e4e4e4;padding:2px;&quot;&gt;capaciteEnL = 1,5&lt;/div&gt;&lt;div style=&quot;box-sizing:border-box;width:100%;background:#e4e4e4;padding:2px;&quot;&gt;contenanceEnL = 1,25&lt;/div&gt;&lt;div style=&quot;box-sizing:border-box;width:100%;background:#e4e4e4;padding:2px;&quot;&gt;estOuverte = false&lt;/div&gt;&lt;div style=&quot;box-sizing:border-box;width:100%;background:#e4e4e4;padding:2px;&quot;&gt;nom = &quot;Cristaline&quot;&lt;/div&gt;" style="verticalAlign=top;align=left;overflow=fill;html=1;whiteSpace=wrap;" parent="1" vertex="1">
          <mxGeometry x="430" y="100" width="180" height="90" as="geometry" />
        </mxCell>
        <mxCell id="WRiCCvtNNH3mj4T9hAHX-46" value="" style="endArrow=classic;html=1;rounded=0;" parent="1" edge="1">
          <mxGeometry width="50" height="50" relative="1" as="geometry">
            <mxPoint x="390" y="110" as="sourcePoint" />
            <mxPoint x="420" y="110" as="targetPoint" />
          </mxGeometry>
        </mxCell>
      </root>
    </mxGraphModel>
  </diagram>
</mxfile>
